<?xml version="1.0" encoding="UTF-8"?>
<svg id="Layer_1" data-name="Layer 1" xmlns="http://www.w3.org/2000/svg" viewBox="0 0 879.01 84.44">
  <defs>
    <style>
      .cls-1 {
        fill: #fff;
      }
    </style>
  </defs>
  <path class="cls-1" d="m624.45,67.43c-13.44,0-24.34-10.9-24.34-24.34s10.9-24.33,24.34-24.33c10.47,0,19.4,6.61,22.83,15.89h17.66c-3.9-18.79-20.54-32.91-40.49-32.91-22.84,0-41.35,18.52-41.35,41.35s18.51,41.35,41.35,41.35c19.94,0,36.58-14.11,40.48-32.89h-17.66c-3.43,9.27-12.35,15.88-22.82,15.88Z"/>
  <polygon class="cls-1" points="380.97 50.89 342.37 .59 326.07 .59 326.07 81.19 342.97 81.19 342.97 29.19 382.97 81.19 397.87 81.19 397.87 .69 380.97 .69 380.97 50.89"/>
  <g>
    <rect class="cls-1" x="111.17" y=".69" width="16.9" height="80.6"/>
    <polygon class="cls-1" points="246.07 50.89 207.47 .59 191.17 .59 191.17 81.19 208.07 81.19 208.07 29.19 248.07 81.19 262.97 81.19 262.97 .69 246.07 .69 246.07 50.89"/>
  </g>
  <polygon class="cls-1" points="842.51 50.04 876.71 50.04 876.71 34.04 842.51 34.04 842.51 17.74 877.91 17.74 877.91 1.74 825.61 1.74 825.61 82.34 879.01 82.34 879.01 66.34 842.51 66.34 842.51 50.04"/>
  <rect class="cls-1" x="724.19" y=".69" width="16.9" height="80.6"/>
  <g>
    <path class="cls-1" d="m16.9,12.49v.06s.05-.04.08-.06h-.08Zm0,32.49v.07h.09s-.06-.05-.09-.07Z"/>
    <path class="cls-1" d="m29.04.01h0s-29.04-.01-29.04-.01v82.34h16.9v-24.8h12.32v-.02c15.78-.1,28.58-12.96,28.58-28.75S44.9.01,29.04.01Zm-12.14,12.48h.08s-.06.04-.08.06v-.06Zm0,32.56v-.07s.06.05.09.07h-.09Zm12.14-4.53h-12.49v-23.5h12.19c.1-.01.2-.01.3-.01,6.48,0,11.76,5.27,11.76,11.76s-5.28,11.75-11.76,11.75Z"/>
  </g>
  <rect class="cls-1" x="724.19" y="65.25" width="53.4" height="16.9"/>
  <polygon class="cls-1" points="454.73 82.34 471.63 82.34 503.62 1.41 486.72 1.41 454.73 82.34"/>
  <polygon class="cls-1" points="486.72 1.41 503.44 1.41 495.1 22.5 486.72 1.41"/>
  <polygon class="cls-1" points="535.79 82.34 518.89 82.34 501.74 39.19 510.11 17.75 535.79 82.34"/>
</svg>